STARTFONT 2.1
FONT -FontForge-microblok-Bold-R-Normal--10-100-72-72-M-50-FontSpecific-0
SIZE 10 72 72
FONTBOUNDINGBOX 7 10 0 -3
COMMENT "Generated by fontforge, http://fontforge.sourceforge.net"
COMMENT "derekstrasters"
STARTPROPERTIES 39
FOUNDRY "FontForge"
FAMILY_NAME "microblok"
WEIGHT_NAME "Bold"
SLANT "R"
SETWIDTH_NAME "Normal"
ADD_STYLE_NAME ""
PIXEL_SIZE 10
POINT_SIZE 100
RESOLUTION_X 72
RESOLUTION_Y 72
SPACING "M"
AVERAGE_WIDTH 50
CHARSET_REGISTRY "FontSpecific"
CHARSET_ENCODING "0"
FONTNAME_REGISTRY ""
CHARSET_COLLECTIONS "ASCII ISOLatin1Encoding FontSpecific"
FONT_NAME "microblok"
FACE_NAME "microblok"
FONT_VERSION "001"
FONT_ASCENT 7
FONT_DESCENT 3
UNDERLINE_POSITION -2
UNDERLINE_THICKNESS 1
X_HEIGHT 4
CAP_HEIGHT 4
RAW_ASCENT 700
RAW_DESCENT 300
NORM_SPACE 5
RELATIVE_WEIGHT 70
RELATIVE_SETWIDTH 50
SUPERSCRIPT_X -3
SUPERSCRIPT_Y 4
SUPERSCRIPT_SIZE 7
SUBSCRIPT_X 1
SUBSCRIPT_Y 1
SUBSCRIPT_SIZE 7
FIGURE_WIDTH 5
AVG_LOWERCASE_WIDTH 50
AVG_UPPERCASE_WIDTH 50
ENDPROPERTIES
CHARS 296
STARTCHAR .notdef
ENCODING -1
SWIDTH 500 0
DWIDTH 5 0
BBX 6 10 0 -3
BITMAP
FC
80
B8
B8
B8
B8
B8
B8
80
FC
ENDCHAR
STARTCHAR .null
ENCODING -1
SWIDTH 500 0
DWIDTH 5 0
BBX 1 1 0 0
BITMAP
00
ENDCHAR
STARTCHAR nonmarkingreturn
ENCODING -1
SWIDTH 500 0
DWIDTH 5 0
BBX 1 1 0 0
BITMAP
00
ENDCHAR
STARTCHAR space
ENCODING -1
SWIDTH 500 0
DWIDTH 5 0
BBX 1 1 0 0
BITMAP
00
ENDCHAR
STARTCHAR exclam
ENCODING -1
SWIDTH 500 0
DWIDTH 5 0
BBX 3 8 2 -1
BITMAP
E0
A0
A0
A0
A0
E0
A0
E0
ENDCHAR
STARTCHAR quotedbl
ENCODING -1
SWIDTH 500 0
DWIDTH 5 0
BBX 5 4 1 3
BITMAP
F8
A8
A8
F8
ENDCHAR
STARTCHAR numbersign
ENCODING -1
SWIDTH 500 0
DWIDTH 5 0
BBX 6 7 0 -1
BITMAP
7C
D4
84
D4
84
D4
7C
ENDCHAR
STARTCHAR dollar
ENCODING -1
SWIDTH 500 0
DWIDTH 5 0
BBX 5 9 1 -2
BITMAP
70
D8
88
98
88
C8
88
D8
70
ENDCHAR
STARTCHAR percent
ENCODING -1
SWIDTH 500 0
DWIDTH 5 0
BBX 6 8 0 -2
BITMAP
FC
94
94
EC
DC
A4
A4
FC
ENDCHAR
STARTCHAR ampersand
ENCODING -1
SWIDTH 500 0
DWIDTH 5 0
BBX 6 9 0 -2
BITMAP
70
D8
A8
DC
C4
A4
A4
D4
7C
ENDCHAR
STARTCHAR quotesingle
ENCODING -1
SWIDTH 500 0
DWIDTH 5 0
BBX 3 4 2 3
BITMAP
E0
A0
A0
E0
ENDCHAR
STARTCHAR parenleft
ENCODING -1
SWIDTH 500 0
DWIDTH 5 0
BBX 5 10 1 -3
BITMAP
78
C8
98
B0
A0
A0
B0
98
C8
78
ENDCHAR
STARTCHAR parenright
ENCODING -1
SWIDTH 500 0
DWIDTH 5 0
BBX 5 10 1 -3
BITMAP
F0
98
C8
68
28
28
68
C8
98
F0
ENDCHAR
STARTCHAR asterisk
ENCODING -1
SWIDTH 500 0
DWIDTH 5 0
BBX 5 6 1 0
BITMAP
70
D8
88
D8
A8
F8
ENDCHAR
STARTCHAR plus
ENCODING -1
SWIDTH 500 0
DWIDTH 5 0
BBX 5 5 1 0
BITMAP
70
D8
88
D8
70
ENDCHAR
STARTCHAR comma
ENCODING -1
SWIDTH 500 0
DWIDTH 5 0
BBX 4 4 1 -2
BITMAP
70
D0
B0
E0
ENDCHAR
STARTCHAR hyphen
ENCODING -1
SWIDTH 500 0
DWIDTH 5 0
BBX 5 3 1 1
BITMAP
F8
88
F8
ENDCHAR
STARTCHAR period
ENCODING -1
SWIDTH 500 0
DWIDTH 5 0
BBX 3 3 2 -1
BITMAP
E0
A0
E0
ENDCHAR
STARTCHAR slash
ENCODING -1
SWIDTH 500 0
DWIDTH 5 0
BBX 6 9 0 -2
BITMAP
1C
34
24
6C
48
D8
90
B0
E0
ENDCHAR
STARTCHAR zero
ENCODING -1
SWIDTH 500 0
DWIDTH 5 0
BBX 6 7 0 0
BITMAP
78
CC
A4
84
94
CC
78
ENDCHAR
STARTCHAR one
ENCODING -1
SWIDTH 500 0
DWIDTH 5 0
BBX 6 7 0 0
BITMAP
38
E8
88
E8
EC
84
FC
ENDCHAR
STARTCHAR two
ENCODING -1
SWIDTH 500 0
DWIDTH 5 0
BBX 6 7 0 0
BITMAP
78
CC
A4
EC
DC
84
FC
ENDCHAR
STARTCHAR three
ENCODING -1
SWIDTH 500 0
DWIDTH 5 0
BBX 6 7 0 0
BITMAP
F8
8C
E4
8C
E4
8C
F8
ENDCHAR
STARTCHAR four
ENCODING -1
SWIDTH 500 0
DWIDTH 5 0
BBX 6 7 0 0
BITMAP
FC
B4
B4
84
F4
14
1C
ENDCHAR
STARTCHAR five
ENCODING -1
SWIDTH 500 0
DWIDTH 5 0
BBX 6 7 0 0
BITMAP
FC
84
BC
84
E4
8C
F8
ENDCHAR
STARTCHAR six
ENCODING -1
SWIDTH 500 0
DWIDTH 5 0
BBX 6 7 0 0
BITMAP
78
C8
BC
84
B4
CC
78
ENDCHAR
STARTCHAR seven
ENCODING -1
SWIDTH 500 0
DWIDTH 5 0
BBX 6 7 0 0
BITMAP
FC
84
F4
6C
58
50
70
ENDCHAR
STARTCHAR eight
ENCODING -1
SWIDTH 500 0
DWIDTH 5 0
BBX 6 7 0 0
BITMAP
78
CC
B4
CC
B4
CC
78
ENDCHAR
STARTCHAR nine
ENCODING -1
SWIDTH 500 0
DWIDTH 5 0
BBX 6 7 0 0
BITMAP
78
CC
B4
84
F4
4C
78
ENDCHAR
STARTCHAR colon
ENCODING -1
SWIDTH 500 0
DWIDTH 5 0
BBX 3 6 2 -1
BITMAP
E0
A0
E0
E0
A0
E0
ENDCHAR
STARTCHAR semicolon
ENCODING -1
SWIDTH 500 0
DWIDTH 5 0
BBX 4 7 1 -2
BITMAP
70
50
F0
90
D0
B0
E0
ENDCHAR
STARTCHAR less
ENCODING -1
SWIDTH 500 0
DWIDTH 5 0
BBX 5 7 1 -1
BITMAP
38
68
D8
B0
D8
68
38
ENDCHAR
STARTCHAR equal
ENCODING -1
SWIDTH 500 0
DWIDTH 5 0
BBX 6 5 0 0
BITMAP
FC
84
FC
84
FC
ENDCHAR
STARTCHAR greater
ENCODING -1
SWIDTH 500 0
DWIDTH 5 0
BBX 5 7 1 -1
BITMAP
E0
B0
D8
68
D8
B0
E0
ENDCHAR
STARTCHAR question
ENCODING -1
SWIDTH 500 0
DWIDTH 5 0
BBX 5 8 1 -1
BITMAP
70
D8
A8
E8
58
70
50
70
ENDCHAR
STARTCHAR at
ENCODING -1
SWIDTH 500 0
DWIDTH 5 0
BBX 6 9 0 -2
BITMAP
78
CC
B4
A4
94
A4
BC
C4
7C
ENDCHAR
STARTCHAR A
ENCODING -1
SWIDTH 500 0
DWIDTH 5 0
BBX 6 8 0 -1
BITMAP
7C
C4
B4
84
B4
B4
B4
FC
ENDCHAR
STARTCHAR B
ENCODING -1
SWIDTH 500 0
DWIDTH 5 0
BBX 6 8 0 -1
BITMAP
78
C8
AC
84
B4
B4
8C
F8
ENDCHAR
STARTCHAR C
ENCODING -1
SWIDTH 500 0
DWIDTH 5 0
BBX 6 8 0 -1
BITMAP
7C
C4
B4
BC
BC
B4
8C
F8
ENDCHAR
STARTCHAR D
ENCODING -1
SWIDTH 500 0
DWIDTH 5 0
BBX 6 8 0 -1
BITMAP
F8
8C
B4
B4
B4
AC
98
F0
ENDCHAR
STARTCHAR E
ENCODING -1
SWIDTH 500 0
DWIDTH 5 0
BBX 6 8 0 -1
BITMAP
7C
C4
BC
8C
BC
B4
84
FC
ENDCHAR
STARTCHAR F
ENCODING -1
SWIDTH 500 0
DWIDTH 5 0
BBX 6 8 0 -1
BITMAP
7C
C4
BC
BC
88
B8
A0
E0
ENDCHAR
STARTCHAR G
ENCODING -1
SWIDTH 500 0
DWIDTH 5 0
BBX 6 8 0 -1
BITMAP
7C
C4
BC
BC
A4
B4
8C
F8
ENDCHAR
STARTCHAR H
ENCODING -1
SWIDTH 500 0
DWIDTH 5 0
BBX 6 8 0 -1
BITMAP
FC
B4
B4
84
B4
B4
A4
FC
ENDCHAR
STARTCHAR I
ENCODING -1
SWIDTH 500 0
DWIDTH 5 0
BBX 6 8 0 -1
BITMAP
FC
84
EC
28
28
EC
84
FC
ENDCHAR
STARTCHAR J
ENCODING -1
SWIDTH 500 0
DWIDTH 5 0
BBX 6 8 0 -1
BITMAP
FC
84
F4
F4
B4
B4
8C
F8
ENDCHAR
STARTCHAR K
ENCODING -1
SWIDTH 500 0
DWIDTH 5 0
BBX 6 8 0 -1
BITMAP
FC
B4
B4
8C
AC
B4
B4
FC
ENDCHAR
STARTCHAR L
ENCODING -1
SWIDTH 500 0
DWIDTH 5 0
BBX 5 8 1 -1
BITMAP
E0
A0
A0
A0
A0
B8
88
F8
ENDCHAR
STARTCHAR M
ENCODING -1
SWIDTH 500 0
DWIDTH 5 0
BBX 6 8 0 -1
BITMAP
7C
D4
84
84
B4
B4
B4
FC
ENDCHAR
STARTCHAR N
ENCODING -1
SWIDTH 500 0
DWIDTH 5 0
BBX 6 8 0 -1
BITMAP
7C
D4
94
84
A4
B4
B4
FC
ENDCHAR
STARTCHAR O
ENCODING -1
SWIDTH 500 0
DWIDTH 5 0
BBX 6 8 0 -1
BITMAP
7C
C4
B4
B4
B4
B4
8C
F8
ENDCHAR
STARTCHAR P
ENCODING -1
SWIDTH 500 0
DWIDTH 5 0
BBX 6 8 0 -1
BITMAP
7C
C4
B4
B4
8C
B8
A0
E0
ENDCHAR
STARTCHAR Q
ENCODING -1
SWIDTH 500 0
DWIDTH 5 0
BBX 6 9 0 -2
BITMAP
7C
C4
B4
B4
B4
AC
8C
E4
3C
ENDCHAR
STARTCHAR R
ENCODING -1
SWIDTH 500 0
DWIDTH 5 0
BBX 6 8 0 -1
BITMAP
7C
C4
B4
B4
8C
AC
B4
FC
ENDCHAR
STARTCHAR S
ENCODING -1
SWIDTH 500 0
DWIDTH 5 0
BBX 6 8 0 -1
BITMAP
7C
C4
BC
9C
E4
F4
8C
F8
ENDCHAR
STARTCHAR T
ENCODING -1
SWIDTH 500 0
DWIDTH 5 0
BBX 6 8 0 -1
BITMAP
FC
84
AC
E8
28
28
28
38
ENDCHAR
STARTCHAR U
ENCODING -1
SWIDTH 500 0
DWIDTH 5 0
BBX 6 8 0 -1
BITMAP
FC
B4
B4
B4
B4
B4
8C
F8
ENDCHAR
STARTCHAR V
ENCODING -1
SWIDTH 500 0
DWIDTH 5 0
BBX 6 8 0 -1
BITMAP
FC
B4
B4
B4
AC
98
B0
E0
ENDCHAR
STARTCHAR W
ENCODING -1
SWIDTH 500 0
DWIDTH 5 0
BBX 6 8 0 -1
BITMAP
FC
B4
B4
B4
84
84
AC
F8
ENDCHAR
STARTCHAR X
ENCODING -1
SWIDTH 500 0
DWIDTH 5 0
BBX 6 8 0 -1
BITMAP
FC
94
94
CC
CC
A4
A4
FC
ENDCHAR
STARTCHAR Y
ENCODING -1
SWIDTH 500 0
DWIDTH 5 0
BBX 6 8 0 -1
BITMAP
FC
B4
B4
8C
D8
50
50
70
ENDCHAR
STARTCHAR Z
ENCODING -1
SWIDTH 500 0
DWIDTH 5 0
BBX 6 8 0 -1
BITMAP
FC
84
B4
EC
DC
BC
84
FC
ENDCHAR
STARTCHAR bracketleft
ENCODING -1
SWIDTH 500 0
DWIDTH 5 0
BBX 5 10 1 -3
BITMAP
F8
88
B8
A0
A0
A0
A0
B8
88
F8
ENDCHAR
STARTCHAR backslash
ENCODING -1
SWIDTH 500 0
DWIDTH 5 0
BBX 6 9 0 -2
BITMAP
E0
B0
90
D8
48
6C
24
34
1C
ENDCHAR
STARTCHAR bracketright
ENCODING -1
SWIDTH 500 0
DWIDTH 5 0
BBX 5 10 1 -3
BITMAP
F8
88
E8
28
28
28
28
E8
88
F8
ENDCHAR
STARTCHAR asciicircum
ENCODING -1
SWIDTH 500 0
DWIDTH 5 0
BBX 6 5 0 2
BITMAP
78
48
CC
B4
FC
ENDCHAR
STARTCHAR underscore
ENCODING -1
SWIDTH 500 0
DWIDTH 5 0
BBX 6 3 0 -2
BITMAP
FC
00
FC
ENDCHAR
STARTCHAR grave
ENCODING -1
SWIDTH 500 0
DWIDTH 5 0
BBX 4 4 1 3
BITMAP
E0
B0
D0
70
ENDCHAR
STARTCHAR a
ENCODING -1
SWIDTH 500 0
DWIDTH 5 0
BBX 6 6 0 -1
BITMAP
7C
C4
B4
A4
94
FC
ENDCHAR
STARTCHAR b
ENCODING -1
SWIDTH 500 0
DWIDTH 5 0
BBX 6 8 0 -1
BITMAP
E0
A0
BC
A4
94
B4
8C
F8
ENDCHAR
STARTCHAR c
ENCODING -1
SWIDTH 500 0
DWIDTH 5 0
BBX 6 6 0 -1
BITMAP
7C
C4
BC
BC
84
FC
ENDCHAR
STARTCHAR d
ENCODING -1
SWIDTH 500 0
DWIDTH 5 0
BBX 6 8 0 -1
BITMAP
1C
14
74
C4
B4
A4
94
FC
ENDCHAR
STARTCHAR e
ENCODING -1
SWIDTH 500 0
DWIDTH 5 0
BBX 6 6 0 -1
BITMAP
7C
C4
AC
9C
C4
7C
ENDCHAR
STARTCHAR f
ENCODING -1
SWIDTH 500 0
DWIDTH 5 0
BBX 6 8 0 -1
BITMAP
3C
64
54
DC
84
DC
90
F0
ENDCHAR
STARTCHAR g
ENCODING -1
SWIDTH 500 0
DWIDTH 5 0
BBX 6 8 0 -3
BITMAP
7C
C4
B4
A4
D4
B4
CC
F8
ENDCHAR
STARTCHAR h
ENCODING -1
SWIDTH 500 0
DWIDTH 5 0
BBX 6 8 0 -1
BITMAP
E0
A0
BC
A4
94
B4
B4
FC
ENDCHAR
STARTCHAR i
ENCODING -1
SWIDTH 500 0
DWIDTH 5 0
BBX 5 8 1 -1
BITMAP
70
50
70
D0
90
D8
48
78
ENDCHAR
STARTCHAR j
ENCODING -1
SWIDTH 500 0
DWIDTH 5 0
BBX 6 9 0 -2
BITMAP
1C
14
3C
24
34
F4
B4
8C
F8
ENDCHAR
STARTCHAR k
ENCODING -1
SWIDTH 500 0
DWIDTH 5 0
BBX 6 8 0 -1
BITMAP
E0
A0
BC
A4
8C
AC
A4
FC
ENDCHAR
STARTCHAR l
ENCODING -1
SWIDTH 500 0
DWIDTH 5 0
BBX 5 8 1 -1
BITMAP
F0
90
D0
50
50
58
48
78
ENDCHAR
STARTCHAR m
ENCODING -1
SWIDTH 500 0
DWIDTH 5 0
BBX 6 6 0 -1
BITMAP
FC
84
84
B4
B4
FC
ENDCHAR
STARTCHAR n
ENCODING -1
SWIDTH 500 0
DWIDTH 5 0
BBX 6 6 0 -1
BITMAP
FC
A4
94
B4
B4
FC
ENDCHAR
STARTCHAR o
ENCODING -1
SWIDTH 500 0
DWIDTH 5 0
BBX 6 6 0 -1
BITMAP
7C
C4
B4
B4
8C
F8
ENDCHAR
STARTCHAR p
ENCODING -1
SWIDTH 500 0
DWIDTH 5 0
BBX 6 8 0 -3
BITMAP
FC
A4
94
B4
8C
B8
A0
E0
ENDCHAR
STARTCHAR q
ENCODING -1
SWIDTH 500 0
DWIDTH 5 0
BBX 6 8 0 -3
BITMAP
7C
C4
B4
A4
8C
EC
24
3C
ENDCHAR
STARTCHAR r
ENCODING -1
SWIDTH 500 0
DWIDTH 5 0
BBX 6 6 0 -1
BITMAP
FC
A4
94
BC
A0
E0
ENDCHAR
STARTCHAR s
ENCODING -1
SWIDTH 500 0
DWIDTH 5 0
BBX 6 6 0 -1
BITMAP
7C
C4
9C
E4
8C
F8
ENDCHAR
STARTCHAR t
ENCODING -1
SWIDTH 500 0
DWIDTH 5 0
BBX 6 8 0 -1
BITMAP
70
50
DC
84
DC
58
48
78
ENDCHAR
STARTCHAR u
ENCODING -1
SWIDTH 500 0
DWIDTH 5 0
BBX 6 6 0 -1
BITMAP
FC
B4
B4
A4
94
FC
ENDCHAR
STARTCHAR v
ENCODING -1
SWIDTH 500 0
DWIDTH 5 0
BBX 6 6 0 -1
BITMAP
FC
B4
AC
98
B0
E0
ENDCHAR
STARTCHAR w
ENCODING -1
SWIDTH 500 0
DWIDTH 5 0
BBX 6 6 0 -1
BITMAP
FC
B4
B4
84
84
FC
ENDCHAR
STARTCHAR x
ENCODING -1
SWIDTH 500 0
DWIDTH 5 0
BBX 6 6 0 -1
BITMAP
FC
94
CC
CC
A4
FC
ENDCHAR
STARTCHAR y
ENCODING -1
SWIDTH 500 0
DWIDTH 5 0
BBX 6 8 0 -3
BITMAP
FC
B4
B4
A4
D4
B4
CC
F8
ENDCHAR
STARTCHAR z
ENCODING -1
SWIDTH 500 0
DWIDTH 5 0
BBX 6 6 0 -1
BITMAP
FC
84
EC
DC
84
FC
ENDCHAR
STARTCHAR braceleft
ENCODING -1
SWIDTH 500 0
DWIDTH 5 0
BBX 6 10 0 -3
BITMAP
3C
64
5C
D0
90
90
D0
5C
64
3C
ENDCHAR
STARTCHAR bar
ENCODING -1
SWIDTH 500 0
DWIDTH 5 0
BBX 3 10 2 -3
BITMAP
E0
A0
A0
A0
A0
A0
A0
A0
A0
E0
ENDCHAR
STARTCHAR braceright
ENCODING -1
SWIDTH 500 0
DWIDTH 5 0
BBX 6 10 0 -3
BITMAP
F0
98
E8
2C
24
24
2C
E8
98
F0
ENDCHAR
STARTCHAR asciitilde
ENCODING -1
SWIDTH 500 0
DWIDTH 5 0
BBX 6 4 0 2
BITMAP
FC
94
A4
FC
ENDCHAR
STARTCHAR uni00A0
ENCODING -1
SWIDTH 500 0
DWIDTH 5 0
BBX 1 1 0 0
BITMAP
00
ENDCHAR
STARTCHAR exclamdown
ENCODING -1
SWIDTH 500 0
DWIDTH 5 0
BBX 3 9 2 -3
BITMAP
E0
A0
E0
A0
A0
A0
A0
A0
E0
ENDCHAR
STARTCHAR cent
ENCODING -1
SWIDTH 500 0
DWIDTH 5 0
BBX 6 9 0 -2
BITMAP
38
6C
C4
AC
A8
8C
C4
5C
70
ENDCHAR
STARTCHAR sterling
ENCODING -1
SWIDTH 500 0
DWIDTH 5 0
BBX 6 8 0 -1
BITMAP
38
6C
54
DC
88
DC
84
FC
ENDCHAR
STARTCHAR currency
ENCODING -1
SWIDTH 500 0
DWIDTH 5 0
BBX 7 7 0 -2
BITMAP
EE
BA
C6
54
C6
BA
EE
ENDCHAR
STARTCHAR yen
ENCODING -1
SWIDTH 500 0
DWIDTH 5 0
BBX 5 8 1 -1
BITMAP
F8
A8
A8
D8
88
D8
50
70
ENDCHAR
STARTCHAR brokenbar
ENCODING -1
SWIDTH 500 0
DWIDTH 5 0
BBX 3 9 2 -2
BITMAP
E0
A0
A0
A0
E0
A0
A0
A0
E0
ENDCHAR
STARTCHAR section
ENCODING -1
SWIDTH 500 0
DWIDTH 5 0
BBX 6 9 0 -2
BITMAP
7C
C4
BC
8C
B4
C4
F4
8C
F8
ENDCHAR
STARTCHAR dieresis
ENCODING -1
SWIDTH 500 0
DWIDTH 5 0
BBX 6 2 0 5
BITMAP
B4
FC
ENDCHAR
STARTCHAR copyright
ENCODING -1
SWIDTH 500 0
DWIDTH 5 0
BBX 6 9 0 -2
BITMAP
7C
C4
B8
48
58
48
74
8C
F8
ENDCHAR
STARTCHAR ordfeminine
ENCODING -1
SWIDTH 500 0
DWIDTH 5 0
BBX 5 7 1 0
BITMAP
78
C8
A8
C8
A8
88
F8
ENDCHAR
STARTCHAR guillemotleft
ENCODING -1
SWIDTH 500 0
DWIDTH 5 0
BBX 7 7 0 -1
BITMAP
38
6E
DA
B6
DA
6E
38
ENDCHAR
STARTCHAR logicalnot
ENCODING -1
SWIDTH 500 0
DWIDTH 5 0
BBX 6 4 0 -1
BITMAP
FC
84
F4
1C
ENDCHAR
STARTCHAR uni00AD
ENCODING -1
SWIDTH 500 0
DWIDTH 5 0
BBX 5 3 1 1
BITMAP
F8
88
F8
ENDCHAR
STARTCHAR registered
ENCODING -1
SWIDTH 500 0
DWIDTH 5 0
BBX 6 9 0 -2
BITMAP
7C
C4
B8
50
48
58
54
8C
F8
ENDCHAR
STARTCHAR macron
ENCODING -1
SWIDTH 500 0
DWIDTH 5 0
BBX 6 3 0 4
BITMAP
FC
00
FC
ENDCHAR
STARTCHAR degree
ENCODING -1
SWIDTH 500 0
DWIDTH 5 0
BBX 6 6 0 1
BITMAP
78
CC
B4
B4
CC
78
ENDCHAR
STARTCHAR plusminus
ENCODING -1
SWIDTH 500 0
DWIDTH 5 0
BBX 5 7 0 -1
BITMAP
70
D8
88
D8
F8
88
F8
ENDCHAR
STARTCHAR uni00B2
ENCODING -1
SWIDTH 500 0
DWIDTH 5 0
BBX 5 6 0 1
BITMAP
F0
98
E8
D8
88
F8
ENDCHAR
STARTCHAR uni00B3
ENCODING -1
SWIDTH 500 0
DWIDTH 5 0
BBX 5 6 0 1
BITMAP
F8
88
E8
C8
88
F8
ENDCHAR
STARTCHAR acute
ENCODING -1
SWIDTH 500 0
DWIDTH 5 0
BBX 4 5 2 2
BITMAP
70
D0
B0
E0
80
ENDCHAR
STARTCHAR uni00B5
ENCODING -1
SWIDTH 500 0
DWIDTH 5 0
BBX 7 8 0 -3
BITMAP
FC
94
D4
56
42
5E
50
70
ENDCHAR
STARTCHAR paragraph
ENCODING -1
SWIDTH 500 0
DWIDTH 5 0
BBX 6 8 0 -1
BITMAP
7C
C4
94
94
D4
54
54
7C
ENDCHAR
STARTCHAR periodcentered
ENCODING -1
SWIDTH 500 0
DWIDTH 5 0
BBX 3 3 2 1
BITMAP
E0
A0
E0
ENDCHAR
STARTCHAR cedilla
ENCODING -1
SWIDTH 500 0
DWIDTH 5 0
BBX 4 3 1 -3
BITMAP
70
D0
90
ENDCHAR
STARTCHAR uni00B9
ENCODING -1
SWIDTH 500 0
DWIDTH 5 0
BBX 3 5 0 2
BITMAP
E0
A0
A0
A0
E0
ENDCHAR
STARTCHAR ordmasculine
ENCODING -1
SWIDTH 500 0
DWIDTH 5 0
BBX 5 5 1 2
BITMAP
70
D8
A8
D8
70
ENDCHAR
STARTCHAR guillemotright
ENCODING -1
SWIDTH 500 0
DWIDTH 5 0
BBX 7 7 0 -1
BITMAP
38
EC
B6
DA
B6
EC
38
ENDCHAR
STARTCHAR onequarter
ENCODING -1
SWIDTH 500 0
DWIDTH 5 0
BBX 6 10 0 -3
BITMAP
FC
B4
AC
D8
BC
D4
44
74
1C
10
ENDCHAR
STARTCHAR onehalf
ENCODING -1
SWIDTH 500 0
DWIDTH 5 0
BBX 6 9 0 -2
BITMAP
FC
B4
AC
D8
AC
F4
6C
44
7C
ENDCHAR
STARTCHAR threequarters
ENCODING -1
SWIDTH 500 0
DWIDTH 5 0
BBX 6 10 0 -3
BITMAP
F0
9C
D4
8C
D8
BC
D4
44
74
1C
ENDCHAR
STARTCHAR questiondown
ENCODING -1
SWIDTH 500 0
DWIDTH 5 0
BBX 5 8 1 -1
BITMAP
70
50
70
D0
90
B8
88
F8
ENDCHAR
STARTCHAR Euro
ENCODING -1
SWIDTH 500 0
DWIDTH 5 0
BBX 6 8 0 -2
BITMAP
3C
64
DC
84
84
DC
64
3C
ENDCHAR
STARTCHAR carriagereturn
ENCODING -1
SWIDTH 500 0
DWIDTH 5 0
BBX 7 10 0 -3
BITMAP
0E
0A
0A
3A
6A
DA
82
DE
68
38
ENDCHAR
STARTCHAR SF100000
ENCODING -1
SWIDTH 500 0
DWIDTH 5 0
BBX 5 10 1 -3
BITMAP
F8
F8
F8
F8
F8
00
F8
F8
F8
F8
ENDCHAR
STARTCHAR uni2501
ENCODING -1
SWIDTH 500 0
DWIDTH 5 0
BBX 5 10 1 -3
BITMAP
F8
F8
F8
F8
00
00
F8
F8
F8
F8
ENDCHAR
STARTCHAR SF110000
ENCODING -1
SWIDTH 500 0
DWIDTH 5 0
BBX 5 10 1 -3
BITMAP
D8
D8
D8
D8
D8
D8
D8
D8
D8
D8
ENDCHAR
STARTCHAR uni2503
ENCODING -1
SWIDTH 500 0
DWIDTH 5 0
BBX 5 10 1 -3
BITMAP
98
98
98
98
98
98
98
98
98
98
ENDCHAR
STARTCHAR uni2504
ENCODING -1
SWIDTH 500 0
DWIDTH 5 0
BBX 5 10 1 -3
BITMAP
F8
F8
F8
F8
F8
50
F8
F8
F8
F8
ENDCHAR
STARTCHAR uni2505
ENCODING -1
SWIDTH 500 0
DWIDTH 5 0
BBX 5 10 1 -3
BITMAP
F8
F8
F8
F8
50
50
F8
F8
F8
F8
ENDCHAR
STARTCHAR uni2506
ENCODING -1
SWIDTH 500 0
DWIDTH 5 0
BBX 5 10 1 -3
BITMAP
D8
D8
F8
D8
D8
D8
F8
D8
D8
F8
ENDCHAR
STARTCHAR uni2507
ENCODING -1
SWIDTH 500 0
DWIDTH 5 0
BBX 5 10 1 -3
BITMAP
98
98
F8
98
98
98
F8
98
98
F8
ENDCHAR
STARTCHAR uni2508
ENCODING -1
SWIDTH 500 0
DWIDTH 5 0
BBX 5 10 1 -3
BITMAP
F8
F8
F8
F8
F8
A8
F8
F8
F8
F8
ENDCHAR
STARTCHAR uni2509
ENCODING -1
SWIDTH 500 0
DWIDTH 5 0
BBX 5 10 1 -3
BITMAP
F8
F8
F8
F8
A8
A8
F8
F8
F8
F8
ENDCHAR
STARTCHAR uni250A
ENCODING -1
SWIDTH 500 0
DWIDTH 5 0
BBX 5 10 1 -3
BITMAP
D8
F8
D8
F8
D8
F8
D8
F8
D8
F8
ENDCHAR
STARTCHAR uni250B
ENCODING -1
SWIDTH 500 0
DWIDTH 5 0
BBX 5 10 1 -3
BITMAP
98
F8
98
F8
98
F8
98
F8
98
F8
ENDCHAR
STARTCHAR SF010000
ENCODING -1
SWIDTH 500 0
DWIDTH 5 0
BBX 5 10 1 -3
BITMAP
F8
F8
F8
F8
F8
C0
D8
D8
D8
D8
ENDCHAR
STARTCHAR uni250D
ENCODING -1
SWIDTH 500 0
DWIDTH 5 0
BBX 5 10 1 -3
BITMAP
F8
F8
F8
F8
C0
C0
D8
D8
D8
D8
ENDCHAR
STARTCHAR uni250E
ENCODING -1
SWIDTH 500 0
DWIDTH 5 0
BBX 5 10 1 -3
BITMAP
F8
F8
F8
F8
F8
80
98
98
98
98
ENDCHAR
STARTCHAR uni250F
ENCODING -1
SWIDTH 500 0
DWIDTH 5 0
BBX 5 10 1 -3
BITMAP
F8
F8
F8
F8
80
80
98
98
98
98
ENDCHAR
STARTCHAR SF030000
ENCODING -1
SWIDTH 500 0
DWIDTH 5 0
BBX 5 10 1 -3
BITMAP
F8
F8
F8
F8
F8
18
D8
D8
D8
D8
ENDCHAR
STARTCHAR uni2511
ENCODING -1
SWIDTH 500 0
DWIDTH 5 0
BBX 5 10 1 -3
BITMAP
F8
F8
F8
F8
18
18
D8
D8
D8
D8
ENDCHAR
STARTCHAR uni2512
ENCODING -1
SWIDTH 500 0
DWIDTH 5 0
BBX 5 10 1 -3
BITMAP
F8
F8
F8
F8
F8
18
98
98
98
98
ENDCHAR
STARTCHAR uni2513
ENCODING -1
SWIDTH 500 0
DWIDTH 5 0
BBX 5 10 1 -3
BITMAP
F8
F8
F8
F8
18
18
98
98
98
98
ENDCHAR
STARTCHAR SF020000
ENCODING -1
SWIDTH 500 0
DWIDTH 5 0
BBX 5 10 1 -3
BITMAP
D8
D8
D8
D8
D8
C0
F8
F8
F8
F8
ENDCHAR
STARTCHAR uni2515
ENCODING -1
SWIDTH 500 0
DWIDTH 5 0
BBX 5 10 1 -3
BITMAP
D8
D8
D8
D8
C0
C0
F8
F8
F8
F8
ENDCHAR
STARTCHAR uni2516
ENCODING -1
SWIDTH 500 0
DWIDTH 5 0
BBX 5 10 1 -3
BITMAP
98
98
98
98
98
80
F8
F8
F8
F8
ENDCHAR
STARTCHAR uni2517
ENCODING -1
SWIDTH 500 0
DWIDTH 5 0
BBX 5 10 1 -3
BITMAP
98
98
98
98
80
80
F8
F8
F8
F8
ENDCHAR
STARTCHAR SF040000
ENCODING -1
SWIDTH 500 0
DWIDTH 5 0
BBX 5 10 1 -3
BITMAP
D8
D8
D8
D8
D8
18
F8
F8
F8
F8
ENDCHAR
STARTCHAR uni2519
ENCODING -1
SWIDTH 500 0
DWIDTH 5 0
BBX 5 10 1 -3
BITMAP
D8
D8
D8
D8
18
18
F8
F8
F8
F8
ENDCHAR
STARTCHAR uni251A
ENCODING -1
SWIDTH 500 0
DWIDTH 5 0
BBX 5 10 1 -3
BITMAP
98
98
98
98
98
18
F8
F8
F8
F8
ENDCHAR
STARTCHAR uni251B
ENCODING -1
SWIDTH 500 0
DWIDTH 5 0
BBX 5 10 1 -3
BITMAP
98
98
98
98
18
18
F8
F8
F8
F8
ENDCHAR
STARTCHAR SF080000
ENCODING -1
SWIDTH 500 0
DWIDTH 5 0
BBX 5 10 1 -3
BITMAP
D8
D8
D8
D8
D8
C0
D8
D8
D8
D8
ENDCHAR
STARTCHAR uni251D
ENCODING -1
SWIDTH 500 0
DWIDTH 5 0
BBX 5 10 1 -3
BITMAP
D8
D8
D8
D8
C0
C0
D8
D8
D8
D8
ENDCHAR
STARTCHAR uni251E
ENCODING -1
SWIDTH 500 0
DWIDTH 5 0
BBX 5 10 1 -3
BITMAP
98
98
98
98
98
80
D8
D8
D8
D8
ENDCHAR
STARTCHAR uni251F
ENCODING -1
SWIDTH 500 0
DWIDTH 5 0
BBX 5 10 1 -3
BITMAP
D8
D8
D8
D8
D8
80
98
98
98
98
ENDCHAR
STARTCHAR uni2520
ENCODING -1
SWIDTH 500 0
DWIDTH 5 0
BBX 5 10 1 -3
BITMAP
98
98
98
98
98
80
98
98
98
98
ENDCHAR
STARTCHAR uni2521
ENCODING -1
SWIDTH 500 0
DWIDTH 5 0
BBX 5 10 1 -3
BITMAP
98
98
98
98
80
80
D8
D8
D8
D8
ENDCHAR
STARTCHAR uni2522
ENCODING -1
SWIDTH 500 0
DWIDTH 5 0
BBX 5 10 1 -3
BITMAP
D8
D8
D8
D8
80
80
98
98
98
98
ENDCHAR
STARTCHAR uni2523
ENCODING -1
SWIDTH 500 0
DWIDTH 5 0
BBX 5 10 1 -3
BITMAP
98
98
98
98
80
80
98
98
98
98
ENDCHAR
STARTCHAR SF090000
ENCODING -1
SWIDTH 500 0
DWIDTH 5 0
BBX 5 10 1 -3
BITMAP
D8
D8
D8
D8
D8
18
D8
D8
D8
D8
ENDCHAR
STARTCHAR uni2525
ENCODING -1
SWIDTH 500 0
DWIDTH 5 0
BBX 5 10 1 -3
BITMAP
D8
D8
D8
D8
18
18
D8
D8
D8
D8
ENDCHAR
STARTCHAR uni2526
ENCODING -1
SWIDTH 500 0
DWIDTH 5 0
BBX 5 10 1 -3
BITMAP
98
98
98
98
98
18
D8
D8
D8
D8
ENDCHAR
STARTCHAR uni2527
ENCODING -1
SWIDTH 500 0
DWIDTH 5 0
BBX 5 10 1 -3
BITMAP
D8
D8
D8
D8
D8
18
98
98
98
98
ENDCHAR
STARTCHAR uni2528
ENCODING -1
SWIDTH 500 0
DWIDTH 5 0
BBX 5 10 1 -3
BITMAP
98
98
98
98
98
18
98
98
98
98
ENDCHAR
STARTCHAR uni2529
ENCODING -1
SWIDTH 500 0
DWIDTH 5 0
BBX 5 10 1 -3
BITMAP
98
98
98
98
18
18
D8
D8
D8
D8
ENDCHAR
STARTCHAR uni252A
ENCODING -1
SWIDTH 500 0
DWIDTH 5 0
BBX 5 10 1 -3
BITMAP
D8
D8
D8
D8
18
18
98
98
98
98
ENDCHAR
STARTCHAR uni252B
ENCODING -1
SWIDTH 500 0
DWIDTH 5 0
BBX 5 10 1 -3
BITMAP
98
98
98
98
18
18
98
98
98
98
ENDCHAR
STARTCHAR SF060000
ENCODING -1
SWIDTH 500 0
DWIDTH 5 0
BBX 5 10 1 -3
BITMAP
F8
F8
F8
F8
F8
00
D8
D8
D8
D8
ENDCHAR
STARTCHAR uni252D
ENCODING -1
SWIDTH 500 0
DWIDTH 5 0
BBX 5 10 1 -3
BITMAP
F8
F8
F8
F8
18
00
D8
D8
D8
D8
ENDCHAR
STARTCHAR uni252E
ENCODING -1
SWIDTH 500 0
DWIDTH 5 0
BBX 5 10 1 -3
BITMAP
F8
F8
F8
F8
C0
00
D8
D8
D8
D8
ENDCHAR
STARTCHAR uni252F
ENCODING -1
SWIDTH 500 0
DWIDTH 5 0
BBX 5 10 1 -3
BITMAP
F8
F8
F8
F8
00
00
D8
D8
D8
D8
ENDCHAR
STARTCHAR uni2530
ENCODING -1
SWIDTH 500 0
DWIDTH 5 0
BBX 5 10 1 -3
BITMAP
F8
F8
F8
F8
F8
00
98
98
98
98
ENDCHAR
STARTCHAR uni2531
ENCODING -1
SWIDTH 500 0
DWIDTH 5 0
BBX 5 10 1 -3
BITMAP
F8
F8
F8
F8
18
00
98
98
98
98
ENDCHAR
STARTCHAR uni2532
ENCODING -1
SWIDTH 500 0
DWIDTH 5 0
BBX 5 10 1 -3
BITMAP
F8
F8
F8
F8
80
00
98
98
98
98
ENDCHAR
STARTCHAR uni2533
ENCODING -1
SWIDTH 500 0
DWIDTH 5 0
BBX 5 10 1 -3
BITMAP
F8
F8
F8
F8
00
00
98
98
98
98
ENDCHAR
STARTCHAR SF070000
ENCODING -1
SWIDTH 500 0
DWIDTH 5 0
BBX 5 10 1 -3
BITMAP
D8
D8
D8
D8
D8
00
F8
F8
F8
F8
ENDCHAR
STARTCHAR uni2535
ENCODING -1
SWIDTH 500 0
DWIDTH 5 0
BBX 5 10 1 -3
BITMAP
D8
D8
D8
D8
18
00
F8
F8
F8
F8
ENDCHAR
STARTCHAR uni2536
ENCODING -1
SWIDTH 500 0
DWIDTH 5 0
BBX 5 10 1 -3
BITMAP
D8
D8
D8
D8
C0
00
F8
F8
F8
F8
ENDCHAR
STARTCHAR uni2537
ENCODING -1
SWIDTH 500 0
DWIDTH 5 0
BBX 5 10 1 -3
BITMAP
D8
D8
D8
D8
00
00
F8
F8
F8
F8
ENDCHAR
STARTCHAR uni2538
ENCODING -1
SWIDTH 500 0
DWIDTH 5 0
BBX 5 10 1 -3
BITMAP
98
98
98
98
98
00
F8
F8
F8
F8
ENDCHAR
STARTCHAR uni2539
ENCODING -1
SWIDTH 500 0
DWIDTH 5 0
BBX 5 10 1 -3
BITMAP
98
98
98
98
18
00
F8
F8
F8
F8
ENDCHAR
STARTCHAR uni253A
ENCODING -1
SWIDTH 500 0
DWIDTH 5 0
BBX 5 10 1 -3
BITMAP
98
98
98
98
80
00
F8
F8
F8
F8
ENDCHAR
STARTCHAR uni253B
ENCODING -1
SWIDTH 500 0
DWIDTH 5 0
BBX 5 10 1 -3
BITMAP
98
98
98
98
00
00
F8
F8
F8
F8
ENDCHAR
STARTCHAR SF050000
ENCODING -1
SWIDTH 500 0
DWIDTH 5 0
BBX 5 10 1 -3
BITMAP
D8
D8
D8
D8
D8
00
D8
D8
D8
D8
ENDCHAR
STARTCHAR uni253D
ENCODING -1
SWIDTH 500 0
DWIDTH 5 0
BBX 5 10 1 -3
BITMAP
D8
D8
D8
D8
18
00
D8
D8
D8
D8
ENDCHAR
STARTCHAR uni253E
ENCODING -1
SWIDTH 500 0
DWIDTH 5 0
BBX 5 10 1 -3
BITMAP
D8
D8
D8
D8
C0
00
D8
D8
D8
D8
ENDCHAR
STARTCHAR uni253F
ENCODING -1
SWIDTH 500 0
DWIDTH 5 0
BBX 5 10 1 -3
BITMAP
D8
D8
D8
D8
00
00
D8
D8
D8
D8
ENDCHAR
STARTCHAR uni2540
ENCODING -1
SWIDTH 500 0
DWIDTH 5 0
BBX 5 10 1 -3
BITMAP
98
98
98
98
98
00
D8
D8
D8
D8
ENDCHAR
STARTCHAR uni2541
ENCODING -1
SWIDTH 500 0
DWIDTH 5 0
BBX 5 10 1 -3
BITMAP
D8
D8
D8
D8
D8
00
98
98
98
98
ENDCHAR
STARTCHAR uni2542
ENCODING -1
SWIDTH 500 0
DWIDTH 5 0
BBX 5 10 1 -3
BITMAP
98
98
98
98
98
00
98
98
98
F8
ENDCHAR
STARTCHAR uni2543
ENCODING -1
SWIDTH 500 0
DWIDTH 5 0
BBX 5 10 1 -3
BITMAP
98
98
98
98
18
00
D8
D8
D8
D8
ENDCHAR
STARTCHAR uni2544
ENCODING -1
SWIDTH 500 0
DWIDTH 5 0
BBX 5 10 1 -3
BITMAP
98
98
98
98
80
00
D8
D8
D8
D8
ENDCHAR
STARTCHAR uni2545
ENCODING -1
SWIDTH 500 0
DWIDTH 5 0
BBX 5 10 1 -3
BITMAP
D8
D8
D8
D8
18
00
98
98
98
98
ENDCHAR
STARTCHAR uni2546
ENCODING -1
SWIDTH 500 0
DWIDTH 5 0
BBX 5 10 1 -3
BITMAP
D8
D8
D8
D8
80
00
98
98
98
98
ENDCHAR
STARTCHAR uni2547
ENCODING -1
SWIDTH 500 0
DWIDTH 5 0
BBX 5 10 1 -3
BITMAP
98
98
98
98
00
00
D8
D8
D8
D8
ENDCHAR
STARTCHAR uni2548
ENCODING -1
SWIDTH 500 0
DWIDTH 5 0
BBX 5 10 1 -3
BITMAP
D8
D8
D8
D8
00
00
98
98
98
98
ENDCHAR
STARTCHAR uni2549
ENCODING -1
SWIDTH 500 0
DWIDTH 5 0
BBX 5 10 1 -3
BITMAP
98
98
98
98
18
00
98
98
98
98
ENDCHAR
STARTCHAR uni254A
ENCODING -1
SWIDTH 500 0
DWIDTH 5 0
BBX 5 10 1 -3
BITMAP
98
98
98
98
80
00
98
98
98
98
ENDCHAR
STARTCHAR uni254B
ENCODING -1
SWIDTH 500 0
DWIDTH 5 0
BBX 5 10 1 -3
BITMAP
98
98
98
98
00
00
98
98
98
98
ENDCHAR
STARTCHAR uni254C
ENCODING -1
SWIDTH 500 0
DWIDTH 5 0
BBX 5 10 1 -3
BITMAP
F8
F8
F8
F8
F8
A0
F8
F8
F8
F8
ENDCHAR
STARTCHAR uni254D
ENCODING -1
SWIDTH 500 0
DWIDTH 5 0
BBX 5 10 1 -3
BITMAP
F8
F8
F8
F8
A0
A0
F8
F8
F8
F8
ENDCHAR
STARTCHAR uni254E
ENCODING -1
SWIDTH 500 0
DWIDTH 5 0
BBX 5 10 1 -3
BITMAP
F8
D8
D8
D8
F8
F8
D8
D8
D8
F8
ENDCHAR
STARTCHAR uni254F
ENCODING -1
SWIDTH 500 0
DWIDTH 5 0
BBX 5 10 1 -3
BITMAP
F8
98
98
98
F8
F8
98
98
98
F8
ENDCHAR
STARTCHAR SF430000
ENCODING -1
SWIDTH 500 0
DWIDTH 5 0
BBX 5 10 1 -3
BITMAP
F8
F8
F8
00
F8
F8
00
F8
F8
F8
ENDCHAR
STARTCHAR SF240000
ENCODING -1
SWIDTH 500 0
DWIDTH 5 0
BBX 5 10 1 -3
BITMAP
A8
A8
A8
A8
A8
A8
A8
A8
A8
A8
ENDCHAR
STARTCHAR SF510000
ENCODING -1
SWIDTH 500 0
DWIDTH 5 0
BBX 5 10 1 -3
BITMAP
F8
F8
F8
C0
D8
D8
C0
D8
D8
D8
ENDCHAR
STARTCHAR SF520000
ENCODING -1
SWIDTH 500 0
DWIDTH 5 0
BBX 5 10 1 -3
BITMAP
F8
F8
F8
F8
F8
80
A8
A8
A8
A8
ENDCHAR
STARTCHAR SF390000
ENCODING -1
SWIDTH 500 0
DWIDTH 5 0
BBX 5 10 1 -3
BITMAP
F8
F8
F8
80
B8
B8
A0
A8
A8
A8
ENDCHAR
STARTCHAR SF220000
ENCODING -1
SWIDTH 500 0
DWIDTH 5 0
BBX 5 10 1 -3
BITMAP
F8
F8
F8
18
D8
D8
18
D8
D8
D8
ENDCHAR
STARTCHAR SF210000
ENCODING -1
SWIDTH 500 0
DWIDTH 5 0
BBX 5 10 1 -3
BITMAP
F8
F8
F8
F8
F8
08
A8
A8
A8
A8
ENDCHAR
STARTCHAR SF250000
ENCODING -1
SWIDTH 500 0
DWIDTH 5 0
BBX 5 10 1 -3
BITMAP
F8
F8
F8
08
E8
E8
28
A8
A8
A8
ENDCHAR
STARTCHAR SF500000
ENCODING -1
SWIDTH 500 0
DWIDTH 5 0
BBX 5 10 1 -3
BITMAP
D8
D8
D8
C0
D8
D8
C0
F8
F8
F8
ENDCHAR
STARTCHAR SF490000
ENCODING -1
SWIDTH 500 0
DWIDTH 5 0
BBX 5 10 1 -3
BITMAP
A8
A8
A8
A8
A8
80
F8
F8
F8
F8
ENDCHAR
STARTCHAR SF380000
ENCODING -1
SWIDTH 500 0
DWIDTH 5 0
BBX 5 10 1 -3
BITMAP
A8
A8
A8
A0
B8
B8
80
F8
F8
F8
ENDCHAR
STARTCHAR SF280000
ENCODING -1
SWIDTH 500 0
DWIDTH 5 0
BBX 5 10 1 -3
BITMAP
D8
D8
D8
18
D8
D8
18
F8
F8
F8
ENDCHAR
STARTCHAR SF270000
ENCODING -1
SWIDTH 500 0
DWIDTH 5 0
BBX 5 10 1 -3
BITMAP
A8
A8
A8
A8
A8
08
F8
F8
F8
F8
ENDCHAR
STARTCHAR SF260000
ENCODING -1
SWIDTH 500 0
DWIDTH 5 0
BBX 5 10 1 -3
BITMAP
A8
A8
A8
28
E8
E8
08
F8
F8
F8
ENDCHAR
STARTCHAR SF360000
ENCODING -1
SWIDTH 500 0
DWIDTH 5 0
BBX 5 10 1 -3
BITMAP
D8
D8
D8
C0
D8
D8
C0
D8
D8
D8
ENDCHAR
STARTCHAR SF370000
ENCODING -1
SWIDTH 500 0
DWIDTH 5 0
BBX 5 10 1 -3
BITMAP
A8
A8
A8
A8
A8
A0
A8
A8
A8
A8
ENDCHAR
STARTCHAR SF420000
ENCODING -1
SWIDTH 500 0
DWIDTH 5 0
BBX 5 10 1 -3
BITMAP
A8
A8
A8
A0
B8
B8
A0
A8
A8
A8
ENDCHAR
STARTCHAR SF190000
ENCODING -1
SWIDTH 500 0
DWIDTH 5 0
BBX 5 10 1 -3
BITMAP
D8
D8
D8
18
D8
D8
18
D8
D8
D8
ENDCHAR
STARTCHAR SF200000
ENCODING -1
SWIDTH 500 0
DWIDTH 5 0
BBX 5 10 1 -3
BITMAP
A8
A8
A8
A8
A8
28
A8
A8
A8
A8
ENDCHAR
STARTCHAR SF230000
ENCODING -1
SWIDTH 500 0
DWIDTH 5 0
BBX 5 10 1 -3
BITMAP
A8
A8
A8
28
E8
E8
28
A8
A8
A8
ENDCHAR
STARTCHAR SF470000
ENCODING -1
SWIDTH 500 0
DWIDTH 5 0
BBX 5 10 1 -3
BITMAP
F8
F8
F8
00
F8
F8
00
D8
D8
D8
ENDCHAR
STARTCHAR SF480000
ENCODING -1
SWIDTH 500 0
DWIDTH 5 0
BBX 5 10 1 -3
BITMAP
F8
F8
F8
F8
F8
00
A8
A8
A8
A8
ENDCHAR
STARTCHAR SF410000
ENCODING -1
SWIDTH 500 0
DWIDTH 5 0
BBX 5 10 1 -3
BITMAP
F8
F8
F8
00
F8
F8
20
A8
A8
A8
ENDCHAR
STARTCHAR SF450000
ENCODING -1
SWIDTH 500 0
DWIDTH 5 0
BBX 5 10 1 -3
BITMAP
D8
D8
D8
00
F8
F8
00
F8
F8
F8
ENDCHAR
STARTCHAR SF460000
ENCODING -1
SWIDTH 500 0
DWIDTH 5 0
BBX 5 10 1 -3
BITMAP
A8
A8
A8
A8
A8
00
F8
F8
F8
F8
ENDCHAR
STARTCHAR SF400000
ENCODING -1
SWIDTH 500 0
DWIDTH 5 0
BBX 5 10 1 -3
BITMAP
A8
A8
A8
20
F8
F8
00
F8
F8
F8
ENDCHAR
STARTCHAR SF540000
ENCODING -1
SWIDTH 500 0
DWIDTH 5 0
BBX 5 10 1 -3
BITMAP
D8
D8
D8
00
D8
D8
00
D8
D8
D8
ENDCHAR
STARTCHAR SF530000
ENCODING -1
SWIDTH 500 0
DWIDTH 5 0
BBX 5 10 1 -3
BITMAP
A8
A8
A8
A8
A8
00
A8
A8
A8
A8
ENDCHAR
STARTCHAR SF440000
ENCODING -1
SWIDTH 500 0
DWIDTH 5 0
BBX 5 10 1 -3
BITMAP
A8
A8
A8
20
F8
F8
20
A8
A8
A8
ENDCHAR
STARTCHAR uni256D
ENCODING -1
SWIDTH 500 0
DWIDTH 5 0
BBX 5 10 1 -3
BITMAP
F8
F8
F8
F8
F8
E0
C8
D8
D8
D8
ENDCHAR
STARTCHAR uni256E
ENCODING -1
SWIDTH 500 0
DWIDTH 5 0
BBX 5 10 1 -3
BITMAP
F8
F8
F8
F8
F8
38
98
D8
D8
D8
ENDCHAR
STARTCHAR uni256F
ENCODING -1
SWIDTH 500 0
DWIDTH 5 0
BBX 5 10 1 -3
BITMAP
D8
D8
D8
D8
98
38
F8
F8
F8
F8
ENDCHAR
STARTCHAR uni2570
ENCODING -1
SWIDTH 500 0
DWIDTH 5 0
BBX 5 10 1 -3
BITMAP
D8
D8
D8
D8
C8
E0
F8
F8
F8
F8
ENDCHAR
STARTCHAR uni2571
ENCODING -1
SWIDTH 500 0
DWIDTH 5 0
BBX 5 10 1 -3
BITMAP
F0
F0
E8
E8
D8
D8
B8
B8
78
78
ENDCHAR
STARTCHAR uni2572
ENCODING -1
SWIDTH 500 0
DWIDTH 5 0
BBX 5 10 1 -3
BITMAP
78
78
B8
B8
D8
D8
E8
E8
F0
F0
ENDCHAR
STARTCHAR uni2573
ENCODING -1
SWIDTH 500 0
DWIDTH 5 0
BBX 5 10 1 -3
BITMAP
70
70
A8
A8
D8
D8
A8
A8
70
70
ENDCHAR
STARTCHAR uni2574
ENCODING -1
SWIDTH 500 0
DWIDTH 5 0
BBX 5 10 1 -3
BITMAP
F8
F8
F8
F8
F8
18
F8
F8
F8
F8
ENDCHAR
STARTCHAR uni2575
ENCODING -1
SWIDTH 500 0
DWIDTH 5 0
BBX 5 10 1 -3
BITMAP
D8
D8
D8
D8
D8
D8
F8
F8
F8
F8
ENDCHAR
STARTCHAR uni2576
ENCODING -1
SWIDTH 500 0
DWIDTH 5 0
BBX 5 10 1 -3
BITMAP
F8
F8
F8
F8
F8
C0
F8
F8
F8
F8
ENDCHAR
STARTCHAR uni2577
ENCODING -1
SWIDTH 500 0
DWIDTH 5 0
BBX 5 10 1 -3
BITMAP
F8
F8
F8
F8
F8
D8
D8
D8
D8
D8
ENDCHAR
STARTCHAR uni2578
ENCODING -1
SWIDTH 500 0
DWIDTH 5 0
BBX 5 10 1 -3
BITMAP
F8
F8
F8
F8
18
18
F8
F8
F8
F8
ENDCHAR
STARTCHAR uni2579
ENCODING -1
SWIDTH 500 0
DWIDTH 5 0
BBX 5 10 1 -3
BITMAP
98
98
98
98
98
98
F8
F8
F8
F8
ENDCHAR
STARTCHAR uni257A
ENCODING -1
SWIDTH 500 0
DWIDTH 5 0
BBX 5 10 1 -3
BITMAP
F8
F8
F8
F8
C0
C0
F8
F8
F8
F8
ENDCHAR
STARTCHAR uni257B
ENCODING -1
SWIDTH 500 0
DWIDTH 5 0
BBX 5 10 1 -3
BITMAP
F8
F8
F8
F8
F8
98
98
98
98
98
ENDCHAR
STARTCHAR uni257C
ENCODING -1
SWIDTH 500 0
DWIDTH 5 0
BBX 5 10 1 -3
BITMAP
F8
F8
F8
F8
C0
00
F8
F8
F8
F8
ENDCHAR
STARTCHAR uni257D
ENCODING -1
SWIDTH 500 0
DWIDTH 5 0
BBX 5 10 1 -3
BITMAP
D8
D8
D8
D8
D8
98
98
98
98
98
ENDCHAR
STARTCHAR uni257E
ENCODING -1
SWIDTH 500 0
DWIDTH 5 0
BBX 5 10 1 -3
BITMAP
F8
F8
F8
F8
18
00
F8
F8
F8
F8
ENDCHAR
STARTCHAR uni257F
ENCODING -1
SWIDTH 500 0
DWIDTH 5 0
BBX 5 10 1 -3
BITMAP
98
98
98
98
98
98
D8
D8
D8
D8
ENDCHAR
STARTCHAR upblock
ENCODING -1
SWIDTH 500 0
DWIDTH 5 0
BBX 5 5 1 -3
BITMAP
F8
F8
F8
F8
F8
ENDCHAR
STARTCHAR uni2581
ENCODING -1
SWIDTH 500 0
DWIDTH 5 0
BBX 5 10 1 -3
BITMAP
F8
F8
F8
F8
F8
F8
F8
F8
00
F8
ENDCHAR
STARTCHAR uni2582
ENCODING -1
SWIDTH 500 0
DWIDTH 5 0
BBX 5 10 1 -3
BITMAP
F8
F8
F8
F8
F8
F8
F8
00
00
F8
ENDCHAR
STARTCHAR uni2583
ENCODING -1
SWIDTH 500 0
DWIDTH 5 0
BBX 5 10 1 -3
BITMAP
F8
F8
F8
F8
F8
F8
00
00
00
F8
ENDCHAR
STARTCHAR dnblock
ENCODING -1
SWIDTH 500 0
DWIDTH 5 0
BBX 5 10 1 -3
BITMAP
F8
F8
F8
F8
F8
00
00
00
00
F8
ENDCHAR
STARTCHAR uni2585
ENCODING -1
SWIDTH 500 0
DWIDTH 5 0
BBX 5 10 1 -3
BITMAP
F8
F8
F8
F8
00
00
00
00
00
F8
ENDCHAR
STARTCHAR uni2586
ENCODING -1
SWIDTH 500 0
DWIDTH 5 0
BBX 5 10 1 -3
BITMAP
F8
F8
F8
00
00
00
00
00
00
F8
ENDCHAR
STARTCHAR uni2587
ENCODING -1
SWIDTH 500 0
DWIDTH 5 0
BBX 5 10 1 -3
BITMAP
F8
F8
00
00
00
00
00
00
00
F8
ENDCHAR
STARTCHAR block
ENCODING -1
SWIDTH 500 0
DWIDTH 5 0
BBX 5 10 1 -3
BITMAP
F8
00
00
00
00
00
00
00
00
F8
ENDCHAR
STARTCHAR uni2589
ENCODING -1
SWIDTH 500 0
DWIDTH 5 0
BBX 5 10 1 -3
BITMAP
F8
08
08
08
08
08
00
00
00
F8
ENDCHAR
STARTCHAR uni258A
ENCODING -1
SWIDTH 500 0
DWIDTH 5 0
BBX 5 10 1 -3
BITMAP
F8
18
18
08
08
08
08
08
08
F8
ENDCHAR
STARTCHAR uni258B
ENCODING -1
SWIDTH 500 0
DWIDTH 5 0
BBX 5 10 1 -3
BITMAP
F8
18
18
18
18
18
18
18
08
F8
ENDCHAR
STARTCHAR lfblock
ENCODING -1
SWIDTH 500 0
DWIDTH 5 0
BBX 5 10 1 -3
BITMAP
F8
38
38
38
38
18
18
18
18
F8
ENDCHAR
STARTCHAR uni258D
ENCODING -1
SWIDTH 500 0
DWIDTH 5 0
BBX 5 10 1 -3
BITMAP
F8
78
38
38
38
38
38
38
38
F8
ENDCHAR
STARTCHAR uni258E
ENCODING -1
SWIDTH 500 0
DWIDTH 5 0
BBX 5 10 1 -3
BITMAP
F8
78
78
78
78
78
78
38
38
F8
ENDCHAR
STARTCHAR uni258F
ENCODING -1
SWIDTH 500 0
DWIDTH 5 0
BBX 5 10 1 -3
BITMAP
F8
F8
F8
F8
78
78
78
78
78
F8
ENDCHAR
STARTCHAR rtblock
ENCODING -1
SWIDTH 500 0
DWIDTH 5 0
BBX 5 10 1 -3
BITMAP
F8
C0
C0
C0
C0
E0
E0
E0
E0
F8
ENDCHAR
STARTCHAR ltshade
ENCODING -1
SWIDTH 500 0
DWIDTH 5 0
BBX 5 10 1 -3
BITMAP
B8
F0
D8
78
E8
B8
F0
D8
78
E8
ENDCHAR
STARTCHAR shade
ENCODING -1
SWIDTH 500 0
DWIDTH 5 0
BBX 5 10 1 -3
BITMAP
38
E0
98
70
C8
38
E0
98
70
C8
ENDCHAR
STARTCHAR dkshade
ENCODING -1
SWIDTH 500 0
DWIDTH 5 0
BBX 5 10 1 -3
BITMAP
20
80
10
40
08
20
80
10
40
08
ENDCHAR
STARTCHAR uni2594
ENCODING -1
SWIDTH 500 0
DWIDTH 5 0
BBX 5 10 1 -3
BITMAP
F8
00
F8
F8
F8
F8
F8
F8
F8
F8
ENDCHAR
STARTCHAR uni2595
ENCODING -1
SWIDTH 500 0
DWIDTH 5 0
BBX 5 10 1 -3
BITMAP
F8
F0
F0
F0
F0
F0
F8
F8
F8
F8
ENDCHAR
STARTCHAR uni2596
ENCODING -1
SWIDTH 500 0
DWIDTH 5 0
BBX 5 10 1 -3
BITMAP
F8
F8
F8
F8
F8
18
18
18
18
18
ENDCHAR
STARTCHAR uni2597
ENCODING -1
SWIDTH 500 0
DWIDTH 5 0
BBX 5 10 1 -3
BITMAP
F8
F8
F8
F8
F8
C0
C0
C0
C0
C0
ENDCHAR
STARTCHAR uni2598
ENCODING -1
SWIDTH 500 0
DWIDTH 5 0
BBX 5 10 1 -3
BITMAP
18
18
18
18
18
F8
F8
F8
F8
F8
ENDCHAR
STARTCHAR uni2599
ENCODING -1
SWIDTH 500 0
DWIDTH 5 0
BBX 2 5 4 2
BITMAP
C0
C0
C0
C0
C0
ENDCHAR
STARTCHAR uni259A
ENCODING -1
SWIDTH 500 0
DWIDTH 5 0
BBX 5 10 1 -3
BITMAP
18
18
18
18
18
C0
C0
C0
C0
C0
ENDCHAR
STARTCHAR uni259B
ENCODING -1
SWIDTH 500 0
DWIDTH 5 0
BBX 2 5 4 -3
BITMAP
C0
C0
C0
C0
C0
ENDCHAR
STARTCHAR uni259C
ENCODING -1
SWIDTH 500 0
DWIDTH 5 0
BBX 2 5 1 -3
BITMAP
C0
C0
C0
C0
C0
ENDCHAR
STARTCHAR uni259D
ENCODING -1
SWIDTH 500 0
DWIDTH 5 0
BBX 5 10 1 -3
BITMAP
C0
C0
C0
C0
C0
F8
F8
F8
F8
F8
ENDCHAR
STARTCHAR uni259E
ENCODING -1
SWIDTH 500 0
DWIDTH 5 0
BBX 5 10 1 -3
BITMAP
C0
C0
C0
C0
C0
18
18
18
18
18
ENDCHAR
STARTCHAR uni259F
ENCODING -1
SWIDTH 500 0
DWIDTH 5 0
BBX 2 5 4 2
BITMAP
C0
C0
C0
C0
C0
ENDCHAR
STARTCHAR filledbox
ENCODING -1
SWIDTH 500 0
DWIDTH 5 0
BBX 5 10 1 -3
BITMAP
F8
F8
F8
08
08
08
08
F8
F8
F8
ENDCHAR
STARTCHAR H22073
ENCODING -1
SWIDTH 500 0
DWIDTH 5 0
BBX 5 10 1 -3
BITMAP
F8
F8
F8
08
68
68
08
F8
F8
F8
ENDCHAR
STARTCHAR uni25A2
ENCODING -1
SWIDTH 500 0
DWIDTH 5 0
BBX 5 10 1 -3
BITMAP
F8
F8
F8
98
68
68
98
F8
F8
F8
ENDCHAR
STARTCHAR uni3000
ENCODING -1
SWIDTH 500 0
DWIDTH 5 0
BBX 1 1 0 0
BITMAP
00
ENDCHAR
ENDFONT
